<svg width="91" height="22" viewBox="0 0 91 22" fill="none" xmlns="http://www.w3.org/2000/svg">
<path d="M4.74966 21.9519C4.58705 22.0241 4.43347 22.015 4.28893 21.9248C4.23472 21.8887 4.18052 21.8436 4.12631 21.7895C4.07211 21.7534 4.02694 21.6992 3.9908 21.6271C3.84626 21.4105 3.66558 21.2301 3.44876 21.0857C3.34035 20.9955 3.25001 20.8962 3.17774 20.788C3.10546 20.6977 3.04222 20.5895 2.98802 20.4632L2.90671 20.2195C2.83444 20.0752 2.7983 19.9128 2.7983 19.7323C2.81637 19.4977 2.82541 19.2632 2.82541 19.0286C2.82541 18.794 2.80734 18.5594 2.7712 18.3248C2.75313 18.2346 2.7441 18.1534 2.7441 18.0812C2.7441 17.991 2.7441 17.9008 2.7441 17.8105C2.72603 17.6662 2.717 17.5128 2.717 17.3504C2.717 17.188 2.717 17.0346 2.717 16.8902C2.717 16.7639 2.717 16.6466 2.717 16.5383C2.717 16.4301 2.70796 16.3128 2.6899 16.1865C2.67183 16.0782 2.66279 15.9699 2.66279 15.8617C2.66279 15.7534 2.66279 15.6451 2.66279 15.5368V10.9895C2.66279 10.8632 2.65376 10.7729 2.63569 10.7188C2.59955 10.5744 2.58149 10.4391 2.58149 10.3128C2.58149 10.1865 2.56342 10.0602 2.52728 9.93383C2.52728 9.84361 2.53632 9.78045 2.55438 9.74436C2.62666 9.50977 2.66279 9.22105 2.66279 8.87819C2.64473 8.55338 2.63569 8.23759 2.63569 7.93083C2.65376 7.60601 2.65376 7.2812 2.63569 6.95639V6.71278L2.58149 6.65865C2.56342 6.62256 2.52728 6.63158 2.47308 6.68571L2.36467 6.76692C2.3466 6.80301 2.32853 6.8391 2.31046 6.87519C2.2924 6.89323 2.26529 6.9203 2.22916 6.95639C2.12075 7.10075 1.96717 7.19098 1.76842 7.22707C1.64194 7.26316 1.54257 7.24511 1.4703 7.17293C1.41609 7.13684 1.36189 7.10075 1.30768 7.06466C1.25348 7.01053 1.20831 6.96541 1.17217 6.92932C1.08183 6.8391 0.982456 6.74887 0.874047 6.65865C0.783706 6.55038 0.684331 6.45113 0.575922 6.3609C0.341036 6.18045 0.178423 5.92782 0.0880822 5.60301L0.00677558 5.30526C-0.0112926 5.12481 0.00677554 4.94436 0.06098 4.76391C0.0971163 4.65564 0.133253 4.54737 0.169389 4.4391C0.205525 4.33083 0.241661 4.23158 0.277798 4.14135C0.313934 3.99699 0.377173 3.88872 0.467513 3.81654C0.557854 3.74436 0.657229 3.6812 0.765638 3.62707C0.801774 3.62707 0.83791 3.62707 0.874047 3.62707C0.910183 3.60902 0.937285 3.6 0.955353 3.6C1.00956 3.56391 1.03666 3.53684 1.03666 3.5188C1.0728 3.42857 1.127 3.4015 1.19927 3.43759C1.23541 3.43759 1.25348 3.41053 1.25348 3.35639C1.27155 3.33834 1.29865 3.32932 1.33478 3.32932C1.37092 3.34737 1.39802 3.37443 1.41609 3.41053C1.45223 3.42857 1.48836 3.44662 1.5245 3.46466C1.54257 3.48271 1.58774 3.49173 1.66001 3.49173C1.73228 3.45564 1.80456 3.43759 1.87683 3.43759C1.9491 3.43759 2.02137 3.43759 2.09365 3.43759C2.18399 3.43759 2.27433 3.42857 2.36467 3.41053C2.47308 3.37443 2.57245 3.34737 2.66279 3.32932C2.717 3.29323 2.76217 3.24812 2.7983 3.19398L2.87961 2.8421L2.96092 2.43609C2.97899 2.34586 3.00609 2.26466 3.04222 2.19248C3.07836 2.1203 3.1145 2.04812 3.15063 1.97594L3.25904 1.81353C3.43972 1.48872 3.72881 1.2812 4.12631 1.19098C4.16245 1.17293 4.18955 1.16391 4.20762 1.16391C4.22569 1.16391 4.24376 1.15489 4.26182 1.13684C4.31603 1.1188 4.37023 1.10977 4.42444 1.10977C4.47864 1.10977 4.53285 1.10977 4.58705 1.10977H4.80387C5.14716 1.12782 5.40915 1.2812 5.58983 1.56992C5.62597 1.62406 5.66211 1.68722 5.69824 1.7594C5.73438 1.83158 5.76148 1.90376 5.77955 1.97594C5.83375 2.08421 5.92409 2.12932 6.05057 2.11128C6.06864 2.09323 6.09574 2.08421 6.13188 2.08421C6.33063 2.03007 6.52938 1.97594 6.72813 1.9218C6.92688 1.86767 7.12563 1.80451 7.32438 1.73233C7.55926 1.6421 7.79415 1.56992 8.02903 1.51579C8.26392 1.44361 8.49881 1.37143 8.73369 1.29925C8.93244 1.22707 9.13119 1.16391 9.32994 1.10977C9.54676 1.05564 9.75454 1.0015 9.95329 0.947367L10.6037 0.784962C10.9109 0.694736 11.2271 0.613533 11.5523 0.541353C11.8775 0.469172 12.1937 0.396992 12.5009 0.324811C12.6635 0.288721 12.8261 0.234586 12.9887 0.162406C13.1152 0.0721801 13.2507 0.0270673 13.3953 0.0270673C13.5398 0.00902244 13.6753 0 13.8018 0H14.3438C14.6149 0.0180449 14.8317 0.126315 14.9943 0.324811C15.1931 0.505262 15.3015 0.748871 15.3195 1.05564V1.27218C15.3195 1.50677 15.2382 1.70526 15.0756 1.86767C14.913 2.03007 14.7504 2.16541 14.5878 2.27368C14.5697 2.29173 14.5426 2.30075 14.5065 2.30075C14.4884 2.30075 14.4613 2.30977 14.4252 2.32782C14.2625 2.32782 14.0909 2.37293 13.9102 2.46316C13.7837 2.51729 13.6482 2.52632 13.5037 2.49023C13.4133 2.45413 13.323 2.44511 13.2327 2.46316C13.1423 2.46316 13.052 2.47218 12.9616 2.49023C12.8894 2.50827 12.8171 2.52632 12.7448 2.54436C12.6725 2.56241 12.6003 2.58045 12.528 2.5985C12.4557 2.61654 12.3835 2.63459 12.3112 2.65263C12.2389 2.67068 12.1576 2.68872 12.0673 2.70677C11.6336 2.7609 11.2361 2.90526 10.8748 3.13985C10.8386 3.17594 10.7844 3.19398 10.7122 3.19398C10.6037 3.19398 10.5224 3.21203 10.4682 3.24812C10.396 3.26617 10.3237 3.29323 10.2514 3.32932C10.1972 3.36541 10.134 3.4015 10.0617 3.43759C9.98943 3.47368 9.90812 3.50977 9.81778 3.54586C9.72744 3.58195 9.6371 3.61804 9.54676 3.65413C9.43835 3.67218 9.32994 3.69925 9.22153 3.73534C9.11312 3.77143 9.00471 3.80752 8.89631 3.84361C8.8421 3.86165 8.7879 3.8797 8.73369 3.89774C8.69755 3.91579 8.66142 3.93383 8.62528 3.95188C8.4446 4.00601 8.26392 4.0782 8.08324 4.16842C7.92062 4.25865 7.75801 4.35789 7.5954 4.46616L7.45989 4.54737C7.38761 4.56541 7.30631 4.59248 7.21597 4.62857C7.12563 4.66466 7.03529 4.70075 6.94494 4.73684C6.8546 4.75489 6.76426 4.78195 6.67392 4.81804C6.58358 4.85414 6.49324 4.89925 6.4029 4.95338C6.38483 4.97143 6.36676 4.98045 6.3487 4.98045C6.22222 4.9985 6.11381 5.05263 6.02347 5.14286C5.9512 5.21504 5.86989 5.29624 5.77955 5.38647C5.74341 5.42256 5.72534 5.46767 5.72534 5.5218V7.71429C5.72534 7.78647 5.71631 7.85865 5.69824 7.93083C5.69824 8.00301 5.68921 8.08421 5.67114 8.17444C5.67114 8.28271 5.66211 8.35489 5.64404 8.39098C5.64404 8.58947 5.73438 8.66165 5.91506 8.60752C6.16801 8.53534 6.42097 8.46316 6.67392 8.39098C6.94494 8.3188 7.1979 8.24662 7.43278 8.17444C7.68574 8.08421 7.92062 8.00301 8.13744 7.93083C8.37233 7.85865 8.60721 7.78647 8.8421 7.71429C8.93244 7.69624 9.01375 7.67819 9.08602 7.66015C9.15829 7.62406 9.23056 7.59699 9.30284 7.57895C9.59193 7.47068 9.88102 7.36241 10.1701 7.25413C10.4773 7.14586 10.7754 7.05564 11.0645 6.98346C11.2632 6.94737 11.4529 6.90226 11.6336 6.84812C11.8143 6.77594 11.995 6.71278 12.1757 6.65865C12.3383 6.60451 12.5009 6.5594 12.6635 6.52331C12.8261 6.48722 12.9797 6.45113 13.1243 6.41504C13.2327 6.39699 13.3411 6.39699 13.4495 6.41504C13.5579 6.41504 13.6573 6.44211 13.7476 6.49624C13.7837 6.51429 13.8199 6.53233 13.856 6.55038C13.9102 6.55038 13.9554 6.5594 13.9915 6.57744C14.0819 6.57744 14.1541 6.61353 14.2083 6.68571C14.2445 6.70376 14.2716 6.7218 14.2896 6.73985C14.3258 6.75789 14.3619 6.78496 14.3981 6.82105C14.3981 6.82105 14.4252 6.84812 14.4794 6.90226C14.4794 6.9203 14.4794 6.93835 14.4794 6.95639C14.4974 6.95639 14.5065 6.97444 14.5065 7.01053C14.651 7.22707 14.7233 7.37143 14.7233 7.44361C14.7413 7.49774 14.7594 7.61504 14.7775 7.79549C14.7775 7.90376 14.7504 7.97594 14.6962 8.01203L14.6149 8.1203C14.5426 8.3188 14.3981 8.46316 14.1812 8.55338C14.109 8.58947 14.0367 8.63459 13.9644 8.68872C13.9102 8.72481 13.8379 8.7609 13.7476 8.79699L13.6121 8.87819C13.5398 8.95038 13.4585 8.98647 13.3682 8.98647C13.1694 9.02256 12.9707 9.07669 12.7719 9.14887C12.5912 9.22105 12.4015 9.28421 12.2028 9.33835C12.1305 9.35639 12.0582 9.4015 11.986 9.47368C11.8595 9.58195 11.7059 9.66316 11.5252 9.71729C11.4529 9.73534 11.3807 9.76241 11.3084 9.7985C11.2542 9.81654 11.1819 9.83459 11.0916 9.85263C10.7844 9.94286 10.4773 10.0511 10.1701 10.1774C9.88102 10.3038 9.58289 10.4301 9.27574 10.5564C9.14926 10.6105 9.01375 10.6647 8.8692 10.7188C8.74272 10.7729 8.60721 10.818 8.46267 10.8541C8.37233 10.8902 8.27295 10.9353 8.16454 10.9895C8.05614 11.0256 7.95676 11.0797 7.86642 11.1519C7.79415 11.188 7.72187 11.2241 7.6496 11.2601C7.57733 11.2782 7.49602 11.3053 7.40568 11.3414C7.13466 11.4316 6.86364 11.5218 6.59262 11.612C6.32159 11.7023 6.04154 11.7925 5.75245 11.8827C5.69824 11.8827 5.66211 11.8917 5.64404 11.9098C5.5537 11.9459 5.50853 12 5.50853 12.0722C5.49046 12.1805 5.47239 12.2887 5.45432 12.397C5.45432 12.4872 5.45432 12.5774 5.45432 12.6677V12.8301C5.49046 12.9023 5.50853 12.9925 5.50853 13.1008C5.50853 13.191 5.50853 13.2812 5.50853 13.3714C5.50853 13.4075 5.49046 13.4617 5.45432 13.5338C5.38205 13.606 5.34591 13.7053 5.34591 13.8316C5.32785 13.9398 5.31881 14.0481 5.31881 14.1564C5.31881 14.2647 5.30074 14.3729 5.26461 14.4812C5.24654 14.6075 5.2375 14.7248 5.2375 14.8331C5.25557 14.9414 5.29171 15.0496 5.34591 15.1579C5.40012 15.2662 5.42722 15.3835 5.42722 15.5098C5.40915 15.8165 5.45432 16.1594 5.56273 16.5383C5.5808 16.5925 5.58983 16.6827 5.58983 16.809C5.53563 16.9714 5.52659 17.1789 5.56273 17.4316C5.56273 17.5038 5.56273 17.594 5.56273 17.7023C5.56273 17.7925 5.5537 17.8827 5.53563 17.9729C5.49949 18.0271 5.49949 18.1263 5.53563 18.2707C5.53563 18.3068 5.53563 18.3519 5.53563 18.406C5.5537 18.4421 5.56273 18.4782 5.56273 18.5143C5.5808 18.7489 5.59887 18.9835 5.61694 19.218C5.65307 19.4526 5.68017 19.6872 5.69824 19.9218C5.71631 20.0301 5.71631 20.1383 5.69824 20.2466C5.68017 20.3368 5.65307 20.4271 5.61694 20.5173C5.56273 20.7699 5.47239 20.9774 5.34591 21.1399C5.27364 21.2301 5.2104 21.3203 5.1562 21.4105C5.10199 21.5188 5.04779 21.618 4.99358 21.7083C4.97552 21.7624 4.93938 21.8075 4.88518 21.8436C4.83097 21.8797 4.7858 21.9158 4.74966 21.9519Z" fill="#FF0000"/>
<path d="M22.9831 21.194C22.8024 21.1759 22.6217 21.1489 22.4411 21.1128C22.2784 21.0947 22.1158 21.0496 21.9532 20.9774L21.2757 20.7338C21.0408 20.6436 20.824 20.5444 20.6252 20.4361C20.4265 20.3098 20.2277 20.1835 20.029 20.0571C19.9386 19.9669 19.8483 19.8857 19.7579 19.8135C19.6676 19.7233 19.5773 19.6421 19.4869 19.5699C19.3424 19.4256 19.1978 19.2812 19.0533 19.1368C18.9087 18.9744 18.7732 18.803 18.6468 18.6226L17.9963 17.6211C17.8337 17.3684 17.6891 17.1068 17.5627 16.8361C17.4362 16.5474 17.3278 16.2586 17.2374 15.9699C17.0387 15.4286 16.9393 14.8962 16.9393 14.3729V13.9398C16.9393 13.4887 16.9664 13.0466 17.0206 12.6135C17.0568 12.2526 17.1381 11.9278 17.2645 11.6391C17.3368 11.4586 17.4 11.2782 17.4543 11.0977C17.5085 10.9173 17.5717 10.7459 17.644 10.5835L17.7253 10.394C17.7614 10.1594 17.8427 9.95188 17.9692 9.77143C18.0957 9.57293 18.2041 9.38346 18.2944 9.20301C18.3667 9.05865 18.448 8.93233 18.5383 8.82406C18.6287 8.69774 18.71 8.57143 18.7823 8.44511C18.8184 8.39098 18.8636 8.34586 18.9178 8.30977C18.972 8.25564 19.0171 8.2015 19.0533 8.14737C19.0894 8.11128 19.1165 8.06616 19.1346 8.01203C19.1707 7.93985 19.1978 7.87669 19.2159 7.82256C19.252 7.76842 19.3153 7.69624 19.4056 7.60601C19.514 7.55188 19.6134 7.42556 19.7037 7.22707C19.7399 7.15489 19.776 7.10075 19.8121 7.06466C19.9206 6.97444 20.0109 6.86617 20.0832 6.73985C20.1735 6.61353 20.2729 6.49624 20.3813 6.38797C20.4536 6.31579 20.4897 6.21654 20.4897 6.09022C20.4897 6 20.4897 5.9188 20.4897 5.84662C20.5078 5.75639 20.5078 5.67519 20.4897 5.60301C20.4716 5.51278 20.4987 5.43158 20.571 5.3594C20.6071 5.32331 20.6342 5.27819 20.6523 5.22406C20.6704 5.16992 20.6885 5.11579 20.7065 5.06165C20.7607 4.8812 20.9053 4.72782 21.1402 4.6015C21.1763 4.56541 21.2215 4.54737 21.2757 4.54737C21.3479 4.52932 21.4112 4.51128 21.4654 4.49323C21.5919 4.4391 21.7364 4.43007 21.899 4.46616C21.9713 4.48421 22.0345 4.49323 22.0887 4.49323C22.1429 4.47519 22.1971 4.45714 22.2513 4.4391C22.3236 4.40301 22.3869 4.37594 22.4411 4.35789C22.5133 4.33985 22.5766 4.3218 22.6308 4.30376C22.8837 4.21353 23.1457 4.22256 23.4167 4.33083C23.7058 4.4391 23.9136 4.62857 24.0401 4.89925C24.0762 4.98947 24.1124 5.0797 24.1485 5.16992C24.1846 5.26015 24.2117 5.35038 24.2298 5.4406C24.2659 5.6391 24.2569 5.81053 24.2027 5.95489C24.1666 6.02707 24.1485 6.07218 24.1485 6.09022C24.1304 6.16241 24.1485 6.22556 24.2027 6.2797C24.2388 6.33383 24.284 6.37895 24.3382 6.41504C24.537 6.59549 24.7267 6.77594 24.9074 6.95639C25.088 7.1188 25.2597 7.29925 25.4223 7.49774C25.5669 7.6421 25.6843 7.79549 25.7746 7.95789C25.883 8.10225 25.9824 8.26466 26.0728 8.44511C26.1089 8.53534 26.1541 8.63459 26.2083 8.74286C26.2625 8.83308 26.3167 8.92331 26.3709 9.01353C26.4612 9.17594 26.5335 9.34737 26.5877 9.52782C26.66 9.70827 26.7322 9.88872 26.8045 10.0692V10.0962C26.8407 10.2226 26.8678 10.3579 26.8858 10.5023C26.922 10.6286 26.9762 10.7639 27.0484 10.9083C27.1026 11.0346 27.1478 11.1699 27.184 11.3143C27.2201 11.4406 27.2562 11.5759 27.2924 11.7203C27.3285 11.8827 27.3646 12.0451 27.4008 12.2075C27.455 12.3699 27.4911 12.5323 27.5092 12.6947C27.5272 12.7669 27.5453 12.8391 27.5634 12.9113C27.5814 12.9654 27.5995 13.0286 27.6176 13.1008C27.6537 13.2632 27.6899 13.4256 27.726 13.588C27.7621 13.7504 27.7892 13.9128 27.8073 14.0752L27.8886 14.2647C27.9247 14.3729 27.9609 14.5173 27.997 14.6977C28.0512 14.9323 28.0783 15.1669 28.0783 15.4015C28.0964 15.6361 28.0964 15.8797 28.0783 16.1323C28.0783 16.2586 28.0693 16.3579 28.0512 16.4301C27.9428 16.809 27.8073 17.197 27.6447 17.594C27.5724 17.7203 27.5001 17.8466 27.4279 17.9729C27.3556 18.0812 27.2833 18.1985 27.2111 18.3248L26.9671 18.7038C26.8768 18.8662 26.7774 19.0105 26.669 19.1368C26.4883 19.4256 26.2715 19.6782 26.0186 19.8947C25.7656 20.1113 25.4946 20.3188 25.2055 20.5173C24.5731 21.0045 23.8323 21.2301 22.9831 21.194ZM22.8747 18.5143C23.2541 18.5143 23.5794 18.406 23.8504 18.1895C23.9407 18.0992 24.0311 18.018 24.1214 17.9459C24.2298 17.8556 24.3201 17.7654 24.3924 17.6752C24.7357 17.2962 25.0067 16.8992 25.2055 16.4842L25.2868 16.2135C25.3229 15.8887 25.3229 15.5639 25.2868 15.2391L25.1242 14.3459C25.07 14.1113 25.0248 13.8857 24.9887 13.6692C24.9525 13.4346 24.8983 13.209 24.8261 12.9925C24.7719 12.8662 24.7538 12.7669 24.7719 12.6947C24.7899 12.6045 24.7899 12.5143 24.7719 12.4241C24.7538 12.3338 24.7267 12.2436 24.6905 12.1534C24.6363 11.9188 24.5731 11.6842 24.5008 11.4496C24.4286 11.215 24.3563 10.9805 24.284 10.7459C24.2659 10.6917 24.2479 10.6376 24.2298 10.5835C24.2117 10.5293 24.1937 10.4752 24.1756 10.4211C24.0491 10.1684 23.9136 9.92481 23.7691 9.69022C23.6245 9.45564 23.4619 9.2391 23.2812 9.0406C23.1909 8.93233 23.0915 8.83308 22.9831 8.74286C22.8747 8.63459 22.7663 8.53534 22.6579 8.44511C22.6398 8.40902 22.6127 8.39098 22.5766 8.39098C22.5585 8.37293 22.5314 8.35489 22.4953 8.33684C22.4411 8.26466 22.3688 8.27368 22.2785 8.36391C22.1881 8.45413 22.0887 8.55338 21.9803 8.66165C21.89 8.76992 21.7996 8.8782 21.7093 8.98647C21.619 9.11278 21.5196 9.2391 21.4112 9.36541C21.3208 9.49173 21.2305 9.61804 21.1402 9.74436C21.0137 9.90677 20.8962 10.0692 20.7878 10.2316C20.6794 10.394 20.571 10.5564 20.4626 10.7188C20.0832 11.3323 19.785 12.009 19.5682 12.7489C19.5321 12.8571 19.514 12.9383 19.514 12.9925C19.496 13.1188 19.4779 13.2451 19.4598 13.3714C19.4598 13.4977 19.4598 13.6331 19.4598 13.7774V13.994C19.4779 14.0481 19.4869 14.1023 19.4869 14.1564C19.4869 14.2105 19.496 14.2647 19.514 14.3188C19.514 14.5353 19.5682 14.7699 19.6766 15.0226C19.8212 15.3835 19.9838 15.7353 20.1645 16.0782C20.3452 16.4211 20.5529 16.7459 20.7878 17.0526C20.842 17.1248 20.8962 17.197 20.9504 17.2692C21.0227 17.3414 21.086 17.4135 21.1402 17.4857C21.3028 17.6662 21.4744 17.8286 21.6551 17.9729C21.8538 18.1173 22.0526 18.2436 22.2513 18.3519C22.4682 18.4602 22.6759 18.5143 22.8747 18.5143Z" fill="#FF0000"/>
<path d="M35.5814 21.194C35.4007 21.1759 35.22 21.1489 35.0394 21.1128C34.8767 21.0947 34.7141 21.0496 34.5515 20.9774L33.874 20.7338C33.6391 20.6436 33.4223 20.5444 33.2235 20.4361C33.0248 20.3098 32.826 20.1835 32.6273 20.0571C32.5369 19.9669 32.4466 19.8857 32.3562 19.8135C32.2659 19.7233 32.1756 19.6421 32.0852 19.5699C31.9407 19.4256 31.7961 19.2812 31.6516 19.1368C31.507 18.9744 31.3715 18.803 31.245 18.6226L30.5946 17.6211C30.432 17.3684 30.2874 17.1068 30.161 16.8361C30.0345 16.5474 29.9261 16.2586 29.8357 15.9699C29.637 15.4286 29.5376 14.8962 29.5376 14.3729V13.9398C29.5376 13.4887 29.5647 13.0466 29.6189 12.6135C29.6551 12.2526 29.7364 11.9278 29.8628 11.6391C29.9351 11.4586 29.9983 11.2782 30.0526 11.0977C30.1068 10.9173 30.17 10.7459 30.2423 10.5835L30.3236 10.394C30.3597 10.1594 30.441 9.95188 30.5675 9.77143C30.694 9.57293 30.8024 9.38346 30.8927 9.20301C30.965 9.05865 31.0463 8.93233 31.1366 8.82406C31.227 8.69774 31.3083 8.57143 31.3806 8.44511C31.4167 8.39098 31.4619 8.34586 31.5161 8.30977C31.5703 8.25564 31.6154 8.2015 31.6516 8.14737C31.6877 8.11128 31.7148 8.06616 31.7329 8.01203C31.769 7.93985 31.7961 7.87669 31.8142 7.82256C31.8503 7.76842 31.9136 7.69624 32.0039 7.60601C32.1123 7.55188 32.2117 7.42556 32.302 7.22707C32.3382 7.15489 32.3743 7.10075 32.4104 7.06466C32.5189 6.97444 32.6092 6.86617 32.6815 6.73985C32.7718 6.61353 32.8712 6.49624 32.9796 6.38797C33.0519 6.31579 33.088 6.21654 33.088 6.09022C33.088 6 33.088 5.9188 33.088 5.84662C33.1061 5.75639 33.1061 5.67519 33.088 5.60301C33.0699 5.51278 33.097 5.43158 33.1693 5.3594C33.2054 5.32331 33.2325 5.27819 33.2506 5.22406C33.2687 5.16992 33.2868 5.11579 33.3048 5.06165C33.359 4.8812 33.5036 4.72782 33.7385 4.6015C33.7746 4.56541 33.8198 4.54737 33.874 4.54737C33.9462 4.52932 34.0095 4.51128 34.0637 4.49323C34.1902 4.4391 34.3347 4.43007 34.4973 4.46616C34.5696 4.48421 34.6328 4.49323 34.687 4.49323C34.7412 4.47519 34.7954 4.45714 34.8496 4.4391C34.9219 4.40301 34.9852 4.37594 35.0394 4.35789C35.1116 4.33985 35.1749 4.3218 35.2291 4.30376C35.482 4.21353 35.744 4.22256 36.015 4.33083C36.3041 4.4391 36.5119 4.62857 36.6384 4.89925C36.6745 4.98947 36.7107 5.0797 36.7468 5.16992C36.7829 5.26015 36.81 5.35038 36.8281 5.4406C36.8642 5.6391 36.8552 5.81053 36.801 5.95489C36.7649 6.02707 36.7468 6.07218 36.7468 6.09022C36.7287 6.16241 36.7468 6.22556 36.801 6.2797C36.8371 6.33383 36.8823 6.37895 36.9365 6.41504C37.1353 6.59549 37.325 6.77594 37.5057 6.95639C37.6863 7.1188 37.858 7.29925 38.0206 7.49774C38.1651 7.6421 38.2826 7.79549 38.3729 7.95789C38.4813 8.10225 38.5807 8.26466 38.6711 8.44511C38.7072 8.53534 38.7524 8.63459 38.8066 8.74286C38.8608 8.83308 38.915 8.92331 38.9692 9.01353C39.0595 9.17594 39.1318 9.34737 39.186 9.52782C39.2583 9.70827 39.3305 9.88872 39.4028 10.0692V10.0962C39.439 10.2226 39.4661 10.3579 39.4841 10.5023C39.5203 10.6286 39.5745 10.7639 39.6467 10.9083C39.7009 11.0346 39.7461 11.1699 39.7822 11.3143C39.8184 11.4406 39.8545 11.5759 39.8907 11.7203C39.9268 11.8827 39.9629 12.0451 39.9991 12.2075C40.0533 12.3699 40.0894 12.5323 40.1075 12.6947C40.1255 12.7669 40.1436 12.8391 40.1617 12.9113C40.1797 12.9654 40.1978 13.0286 40.2159 13.1008C40.252 13.2632 40.2882 13.4256 40.3243 13.588C40.3604 13.7504 40.3875 13.9128 40.4056 14.0752L40.4869 14.2647C40.523 14.3729 40.5592 14.5173 40.5953 14.6977C40.6495 14.9323 40.6766 15.1669 40.6766 15.4015C40.6947 15.6361 40.6947 15.8797 40.6766 16.1323C40.6766 16.2586 40.6676 16.3579 40.6495 16.4301C40.5411 16.809 40.4056 17.197 40.243 17.594C40.1707 17.7203 40.0984 17.8466 40.0262 17.9729C39.9539 18.0812 39.8816 18.1985 39.8093 18.3248L39.5654 18.7038C39.4751 18.8662 39.3757 19.0105 39.2673 19.1368C39.0866 19.4256 38.8698 19.6782 38.6169 19.8947C38.3639 20.1113 38.0929 20.3188 37.8038 20.5173C37.1714 21.0045 36.4306 21.2301 35.5814 21.194ZM35.473 18.5143C35.8524 18.5143 36.1777 18.406 36.4487 18.1895C36.539 18.0992 36.6294 18.018 36.7197 17.9459C36.8281 17.8556 36.9184 17.7654 36.9907 17.6752C37.334 17.2962 37.605 16.8992 37.8038 16.4842L37.8851 16.2135C37.9212 15.8887 37.9212 15.5639 37.8851 15.2391L37.7225 14.3459C37.6683 14.1113 37.6231 13.8857 37.587 13.6692C37.5508 13.4346 37.4966 13.209 37.4244 12.9925C37.3702 12.8662 37.3521 12.7669 37.3702 12.6947C37.3882 12.6045 37.3882 12.5143 37.3702 12.4241C37.3521 12.3338 37.325 12.2436 37.2888 12.1534C37.2346 11.9188 37.1714 11.6842 37.0991 11.4496C37.0269 11.215 36.9546 10.9805 36.8823 10.7459C36.8642 10.6917 36.8462 10.6376 36.8281 10.5835C36.81 10.5293 36.792 10.4752 36.7739 10.4211C36.6474 10.1684 36.5119 9.92481 36.3674 9.69022C36.2228 9.45564 36.0602 9.2391 35.8795 9.0406C35.7892 8.93233 35.6898 8.83308 35.5814 8.74286C35.473 8.63459 35.3646 8.53534 35.2562 8.44511C35.2381 8.40902 35.211 8.39098 35.1749 8.39098C35.1568 8.37293 35.1297 8.35489 35.0936 8.33684C35.0394 8.26466 34.9671 8.27368 34.8767 8.36391C34.7864 8.45413 34.687 8.55338 34.5786 8.66165C34.4883 8.76992 34.3979 8.8782 34.3076 8.98647C34.2173 9.11278 34.1179 9.2391 34.0095 9.36541C33.9191 9.49173 33.8288 9.61804 33.7385 9.74436C33.612 9.90677 33.4945 10.0692 33.3861 10.2316C33.2777 10.394 33.1693 10.5564 33.0609 10.7188C32.6815 11.3323 32.3833 12.009 32.1665 12.7489C32.1304 12.8571 32.1123 12.9383 32.1123 12.9925C32.0943 13.1188 32.0762 13.2451 32.0581 13.3714C32.0581 13.4977 32.0581 13.6331 32.0581 13.7774V13.994C32.0762 14.0481 32.0852 14.1023 32.0852 14.1564C32.0852 14.2105 32.0943 14.2647 32.1123 14.3188C32.1123 14.5353 32.1665 14.7699 32.2749 15.0226C32.4195 15.3835 32.5821 15.7353 32.7628 16.0782C32.9435 16.4211 33.1512 16.7459 33.3861 17.0526C33.4403 17.1248 33.4945 17.197 33.5487 17.2692C33.621 17.3414 33.6842 17.4135 33.7385 17.4857C33.9011 17.6662 34.0727 17.8286 34.2534 17.9729C34.4521 18.1173 34.6509 18.2436 34.8496 18.3519C35.0665 18.4602 35.2742 18.5143 35.473 18.5143Z" fill="#FF0000"/>
<path d="M46.2963 21.0316C46.1698 21.0316 46.0163 20.9865 45.8356 20.8962C45.7452 20.8421 45.673 20.7699 45.6188 20.6797C45.6007 20.6256 45.5555 20.6256 45.4832 20.6797C45.429 20.7158 45.3839 20.7158 45.3477 20.6797C45.2935 20.6256 45.2393 20.5895 45.1851 20.5714C45.1128 20.5714 45.0767 20.5444 45.0767 20.4902C45.0767 20.4361 45.0677 20.391 45.0496 20.3549C45.0496 20.3008 45.0315 20.2556 44.9954 20.2195C44.887 20.1835 44.8147 20.0932 44.7786 19.9489C44.7605 19.8947 44.7424 19.8496 44.7244 19.8135C44.7063 19.7594 44.6792 19.7053 44.6431 19.6511C44.6069 19.5789 44.5889 19.5158 44.5889 19.4617C44.5708 19.4075 44.5527 19.3624 44.5347 19.3263C44.5347 19.2722 44.5166 19.218 44.4805 19.1639C44.4624 19.0376 44.4263 18.9203 44.3721 18.812C44.3178 18.7038 44.2727 18.5865 44.2365 18.4601C44.2004 18.388 44.1823 18.2887 44.1823 18.1624C44.1823 17.8376 44.2365 17.5399 44.345 17.2692C44.4353 17.1068 44.4624 16.9444 44.4263 16.782C44.4082 16.7098 44.4082 16.6376 44.4263 16.5654C44.4624 16.4932 44.4714 16.4211 44.4534 16.3489C44.4353 16.2767 44.4172 16.2135 44.3992 16.1594C44.3992 16.1053 44.3992 16.0421 44.3992 15.9699C44.3811 15.9338 44.3721 15.8887 44.3721 15.8346C44.3721 15.7263 44.3721 15.618 44.3721 15.5098C44.3721 15.3835 44.354 15.2571 44.3178 15.1308C44.2998 15.0767 44.2907 14.9955 44.2907 14.8872V13.8857C44.2727 13.6511 44.2456 13.4165 44.2094 13.182C44.1733 12.9474 44.1281 12.7128 44.0739 12.4782C44.0739 12.4241 44.0649 12.3699 44.0468 12.3158C44.0468 12.2617 44.0468 12.2075 44.0468 12.1534C44.0468 11.7564 43.9836 11.3684 43.8571 10.9895V10.7459C43.8932 10.5474 43.8752 10.394 43.8029 10.2857C43.7848 10.2135 43.7758 10.1143 43.7758 9.98797V9.9609C43.7758 9.78045 43.7668 9.6 43.7487 9.41955C43.7487 9.2391 43.7577 9.05865 43.7758 8.87819C43.8119 8.55338 43.8119 8.21053 43.7758 7.84962C43.7758 7.70526 43.7758 7.5609 43.7758 7.41654C43.7758 7.27218 43.7668 7.13684 43.7487 7.01053V6.84812C43.7848 6.75789 43.8029 6.67669 43.8029 6.60451C43.8029 6.53233 43.8029 6.46015 43.8029 6.38797C43.8029 6.17143 43.7939 5.96391 43.7758 5.76541C43.7758 5.54887 43.7577 5.34135 43.7216 5.14286C43.7216 5.08872 43.7216 5.03459 43.7216 4.98045C43.7216 4.90827 43.7126 4.84511 43.6945 4.79098C43.6945 4.66466 43.6493 4.55639 43.559 4.46616L43.3693 4.30376C43.1886 4.19549 43.0711 4.02406 43.0169 3.78947C42.9989 3.75338 42.9898 3.72632 42.9898 3.70827C42.9898 3.67218 42.9808 3.63609 42.9627 3.6C42.9266 3.50977 42.9447 3.42857 43.0169 3.35639C43.0711 3.28421 43.1073 3.21203 43.1253 3.13985C43.1253 3.08571 43.1344 3.0406 43.1525 3.00451C43.1886 2.95038 43.2157 2.89624 43.2338 2.8421C43.2518 2.78797 43.2699 2.72481 43.288 2.65263C43.3241 2.5985 43.3512 2.58045 43.3693 2.5985C43.4957 2.5985 43.5861 2.58045 43.6403 2.54436C43.7668 2.45413 43.9023 2.43609 44.0468 2.49023C44.083 2.50827 44.1372 2.49925 44.2094 2.46316C44.2275 2.46316 44.2365 2.45413 44.2365 2.43609C44.3269 2.34586 44.4263 2.30075 44.5347 2.30075C44.6431 2.28271 44.7605 2.28271 44.887 2.30075C44.9051 2.30075 44.9231 2.30977 44.9412 2.32782C44.9593 2.32782 44.9773 2.32782 44.9954 2.32782C45.1399 2.36391 45.2755 2.4 45.4019 2.43609C45.5465 2.45413 45.682 2.45413 45.8085 2.43609C45.8988 2.43609 45.9891 2.44511 46.0795 2.46316C46.1879 2.4812 46.2873 2.49023 46.3776 2.49023C46.4499 2.49023 46.5131 2.49925 46.5673 2.51729C46.6396 2.53534 46.7028 2.55338 46.757 2.57143C46.8293 2.58947 46.8926 2.61654 46.9468 2.65263C47.001 2.67068 47.0642 2.6797 47.1365 2.6797C47.2268 2.69774 47.2991 2.71579 47.3533 2.73383C47.4256 2.75188 47.4978 2.77895 47.5701 2.81504C47.805 2.94135 48.0399 3.05865 48.2748 3.16692C48.3832 3.22105 48.4826 3.29323 48.5729 3.38346C48.6994 3.47368 48.8078 3.52782 48.8981 3.54586C48.9162 3.54586 48.9343 3.55489 48.9523 3.57293C48.9704 3.57293 48.9885 3.57293 49.0065 3.57293C49.0246 3.59098 49.0427 3.6 49.0607 3.6C49.0788 3.6 49.0969 3.60902 49.1149 3.62707C49.2053 3.71729 49.3137 3.78947 49.4402 3.84361C49.5847 3.8797 49.7022 3.94286 49.7925 4.03308C49.8286 4.06917 49.8828 4.10526 49.9551 4.14135C50.0997 4.19549 50.2261 4.27669 50.3345 4.38496C50.3707 4.42105 50.3978 4.4391 50.4158 4.4391C50.4881 4.4391 50.5694 4.48421 50.6598 4.57444L51.2289 5.16992C51.3012 5.24211 51.3554 5.30526 51.3915 5.3594C51.4819 5.48571 51.5812 5.60301 51.6896 5.71128C51.7981 5.81955 51.9065 5.92782 52.0149 6.03609C52.051 6.07218 52.0872 6.11729 52.1233 6.17143C52.1775 6.20752 52.2136 6.25263 52.2317 6.30677C52.2498 6.34286 52.2769 6.37895 52.313 6.41504C52.3491 6.43308 52.3762 6.46015 52.3943 6.49624C52.5931 6.71278 52.7828 6.93834 52.9635 7.17293C53.1622 7.40752 53.3429 7.65113 53.5055 7.90376C53.5958 8.03008 53.6771 8.16541 53.7494 8.30977C53.8217 8.45413 53.8849 8.5985 53.9391 8.74286C53.9933 8.86917 54.0475 8.99549 54.1017 9.1218C54.174 9.24812 54.2373 9.37444 54.2915 9.50075C54.3457 9.69925 54.4089 9.8797 54.4812 10.0421C54.5535 10.2767 54.6257 10.5023 54.698 10.7188C54.7703 10.9353 54.8335 11.1699 54.8877 11.4226L54.969 11.7744C54.969 11.9188 54.969 12.0722 54.969 12.2346C54.9871 12.3789 54.9961 12.5323 54.9961 12.6947C54.9961 12.7669 54.9871 12.8301 54.969 12.8842C54.969 12.9383 54.951 13.0015 54.9148 13.0737C54.8787 13.182 54.8606 13.2812 54.8606 13.3714C54.8425 13.5519 54.7974 13.7233 54.7251 13.8857C54.6709 14.0481 54.6077 14.2015 54.5354 14.3459C54.3728 14.6346 54.2282 14.9233 54.1017 15.212C54.0656 15.2842 54.0295 15.3564 53.9933 15.4286C53.9753 15.4827 53.9482 15.5459 53.912 15.618L53.7494 15.9429C53.6229 16.1955 53.4694 16.4481 53.2887 16.7008C53.1261 16.9353 52.9454 17.1609 52.7466 17.3774C52.6744 17.4677 52.584 17.5579 52.4756 17.6481C52.3853 17.7203 52.2949 17.8015 52.2046 17.8917C52.0239 18.0541 51.8432 18.2165 51.6626 18.3789C51.4819 18.5233 51.2921 18.6677 51.0934 18.812C50.9127 18.9383 50.723 19.0556 50.5243 19.1639C50.3436 19.2722 50.1448 19.3624 49.928 19.4346C49.8196 19.4526 49.7112 19.5068 49.6028 19.597C49.4944 19.6692 49.3769 19.7414 49.2505 19.8135C49.142 19.8857 49.0246 19.9669 48.8981 20.0571C48.8439 20.0752 48.7897 20.1023 48.7355 20.1383C48.6813 20.1564 48.6181 20.1744 48.5458 20.1925C48.4916 20.2105 48.4283 20.2286 48.3561 20.2466C48.3019 20.2647 48.2477 20.2827 48.1935 20.3008C48.1212 20.3188 48.0489 20.3459 47.9766 20.382C47.9224 20.418 47.8682 20.4632 47.814 20.5173C47.6876 20.6075 47.552 20.6797 47.4075 20.7338C47.263 20.806 47.1184 20.8872 46.9739 20.9774C46.9377 20.9955 46.8745 21.0045 46.7841 21.0045C46.7299 21.0226 46.6757 21.0226 46.6215 21.0045C46.5673 21.0045 46.5131 21.0045 46.4589 21.0045V21.0316H46.2963ZM47.3804 18C47.5611 18 47.7147 17.9639 47.8411 17.8917C47.9857 17.8376 48.1212 17.7744 48.2477 17.7023C48.3741 17.6301 48.4916 17.5489 48.6 17.4586L48.9252 17.1338C49.1059 16.9895 49.2685 16.8361 49.4131 16.6737C49.5757 16.5113 49.7473 16.3669 49.928 16.2406C49.9641 16.2045 49.9822 16.1865 49.9822 16.1865C50.0545 16.1143 50.1177 16.0511 50.1719 15.997C50.2442 15.9248 50.3074 15.8526 50.3616 15.7805C50.3978 15.7444 50.4429 15.6992 50.4972 15.6451C50.5514 15.591 50.5875 15.5459 50.6056 15.5098C50.6778 15.3835 50.7772 15.2752 50.9037 15.185C50.994 15.1308 51.0482 15.0767 51.0663 15.0226C51.1024 14.9323 51.1476 14.8421 51.2018 14.7519C51.2741 14.6617 51.3464 14.5805 51.4186 14.5083C51.509 14.4 51.5993 14.2376 51.6896 14.0211L51.7981 13.7504C51.9065 13.4977 51.9607 13.2632 51.9607 13.0466C51.9787 12.9925 51.9878 12.9113 51.9878 12.803C52.0058 12.5323 51.9878 12.2436 51.9336 11.9368C51.9155 11.8466 51.8974 11.7564 51.8794 11.6662C51.8613 11.5759 51.8523 11.4947 51.8523 11.4226C51.8342 11.3504 51.8161 11.2872 51.7981 11.2331C51.7981 11.1609 51.78 11.0977 51.7439 11.0436C51.7077 10.9714 51.6806 10.8992 51.6626 10.8271C51.6445 10.7549 51.6264 10.6827 51.6083 10.6105C51.6083 10.4842 51.5903 10.3759 51.5541 10.2857C51.518 10.1774 51.4819 10.0692 51.4457 9.9609C51.3915 9.85263 51.3373 9.74436 51.2831 9.63609C51.2289 9.50977 51.1837 9.38346 51.1476 9.25714L51.1205 9.14887C51.0663 9.07669 51.0211 9.00451 50.985 8.93233C50.9669 8.8421 50.9398 8.7609 50.9037 8.68872C50.8314 8.52632 50.7591 8.36391 50.6869 8.2015C50.6327 8.0391 50.5604 7.88571 50.4701 7.74135C50.3797 7.57895 50.2803 7.41654 50.1719 7.25413C50.0816 7.09173 49.9641 6.94737 49.8196 6.82105C49.404 6.36992 48.9252 5.96391 48.3832 5.60301C48.058 5.36842 47.7327 5.21504 47.4075 5.14286C47.281 5.10677 47.1365 5.0797 46.9739 5.06165C46.8113 5.02556 46.6577 4.9985 46.5131 4.98045C46.4589 4.98045 46.4138 4.9985 46.3776 5.03459C46.2873 5.10677 46.2421 5.19699 46.2421 5.30526C46.2421 5.43158 46.2331 5.56692 46.215 5.71128C46.215 5.83759 46.215 5.97293 46.215 6.11729C46.2511 6.36993 46.2421 6.57744 46.1879 6.73985C46.1698 6.81203 46.1518 6.88421 46.1337 6.95639C46.1337 7.02857 46.1427 7.10977 46.1608 7.2C46.1969 7.30827 46.1879 7.40752 46.1337 7.49774C46.0795 7.60601 46.0795 7.72331 46.1337 7.84962C46.206 7.99398 46.224 8.17444 46.1879 8.39098C46.1337 8.60752 46.1337 8.82406 46.1879 9.0406C46.206 9.11278 46.215 9.18496 46.215 9.25714C46.2331 9.32932 46.2331 9.41053 46.215 9.50075C46.215 9.69925 46.224 9.89774 46.2421 10.0962C46.2782 10.2947 46.3053 10.4932 46.3234 10.6917C46.3234 10.7278 46.3415 10.782 46.3776 10.8541V11.2872C46.3776 11.3233 46.3686 11.3684 46.3505 11.4226C46.3505 11.4586 46.3596 11.4947 46.3776 11.5308C46.4138 11.6752 46.4409 11.8286 46.4589 11.991C46.4951 12.1353 46.5312 12.2797 46.5673 12.4241C46.5673 12.4602 46.5764 12.5053 46.5944 12.5594C46.6125 12.5955 46.6215 12.6406 46.6215 12.6947C46.6215 12.8211 46.6306 12.9474 46.6486 13.0737C46.6667 13.2 46.6848 13.3353 46.7028 13.4797C46.757 13.985 46.8384 14.4992 46.9468 15.0226C47.001 15.2391 47.0281 15.4647 47.0281 15.6992C47.0281 15.7534 47.0281 15.8165 47.0281 15.8887C47.0281 15.9429 47.0371 15.997 47.0552 16.0511C47.0913 16.1774 47.1094 16.3038 47.1094 16.4301C47.1094 16.5564 47.1094 16.6827 47.1094 16.809C47.1094 16.8451 47.1003 16.8902 47.0823 16.9444C47.0823 16.9985 47.0913 17.0436 47.1094 17.0797C47.1455 17.1699 47.1636 17.2602 47.1636 17.3504C47.1636 17.4226 47.1636 17.5038 47.1636 17.594C47.1636 17.6662 47.1816 17.7564 47.2178 17.8647C47.2178 17.9549 47.272 18 47.3804 18Z" fill="#FF0000"/>
<path d="M59.8466 20.9233C59.7382 20.9233 59.6659 20.9143 59.6298 20.8962C59.5575 20.8601 59.4942 20.8331 59.44 20.815C59.3858 20.797 59.3316 20.7789 59.2774 20.7609C59.2232 20.7248 59.169 20.6887 59.1148 20.6526C59.0787 20.5985 59.0425 20.5444 59.0064 20.4902C58.9703 20.4541 58.9341 20.4361 58.898 20.4361C58.7896 20.4361 58.7354 20.382 58.7354 20.2737C58.7173 20.1654 58.6992 20.0571 58.6812 19.9489C58.6631 19.8406 58.645 19.7323 58.627 19.6241C58.6089 19.4617 58.5908 19.2992 58.5728 19.1368C58.5728 18.9744 58.5547 18.8211 58.5186 18.6767V18.4331C58.5186 18.3609 58.5095 18.2977 58.4915 18.2436C58.4915 18.1895 58.4915 18.1263 58.4915 18.0541C58.4553 17.9639 58.4553 17.8917 58.4915 17.8376C58.5276 17.5128 58.5276 17.188 58.4915 16.8632C58.4734 16.7729 58.4644 16.6827 58.4644 16.5925C58.4644 16.5023 58.4553 16.412 58.4373 16.3218C58.4373 16.1414 58.4373 15.9609 58.4373 15.7805C58.4373 15.582 58.4192 15.3925 58.3831 15.212V14.7789C58.3831 14.6346 58.374 14.4992 58.3559 14.3729C58.3559 14.2466 58.3469 14.1203 58.3288 13.994C58.3108 13.8316 58.2927 13.6692 58.2746 13.5068C58.2746 13.3444 58.2656 13.182 58.2475 13.0195C58.2295 12.9835 58.2204 12.9203 58.2204 12.8301C58.2024 12.7399 58.1843 12.6496 58.1662 12.5594C58.1662 12.4511 58.1662 12.3519 58.1662 12.2617L58.0849 10.9083C58.0669 10.7639 58.0488 10.6286 58.0307 10.5023C58.0307 10.3579 58.0307 10.2226 58.0307 10.0962C58.0127 9.8797 57.9946 9.66316 57.9765 9.44662C57.9585 9.23007 57.9404 9.02256 57.9223 8.82406C57.9223 8.78797 57.9133 8.75188 57.8952 8.71579C57.8952 8.6797 57.8952 8.65263 57.8952 8.63459C57.8952 8.41805 57.8862 8.2015 57.8681 7.98496C57.85 7.76842 57.832 7.54286 57.8139 7.30827L57.7326 6.55038C57.6784 6.26165 57.6694 5.94586 57.7055 5.60301C57.7055 5.4406 57.7687 5.30526 57.8952 5.19699C57.9313 5.1609 57.9585 5.14286 57.9765 5.14286C57.9946 5.12481 58.0127 5.10677 58.0307 5.08872C58.1211 5.07068 58.1662 5.00752 58.1662 4.89925C58.1662 4.86316 58.2024 4.84511 58.2746 4.84511H58.4102C58.4282 4.84511 58.4373 4.84511 58.4373 4.84511C58.4553 4.82707 58.4734 4.81804 58.4915 4.81804C58.5276 4.8 58.5547 4.78195 58.5728 4.76391C58.6089 4.72782 58.636 4.70977 58.6541 4.70977C58.6902 4.70977 58.7263 4.7188 58.7625 4.73684C58.7986 4.73684 58.8348 4.74586 58.8709 4.76391C58.907 4.76391 58.9341 4.75489 58.9522 4.73684C59.0425 4.7188 59.1329 4.72782 59.2232 4.76391C59.3316 4.78195 59.422 4.80902 59.4942 4.84511C59.6026 4.86316 59.684 4.93534 59.7382 5.06165C59.7924 5.22406 59.8375 5.38647 59.8737 5.54887C59.9279 5.69323 59.964 5.84662 59.9821 6.00902V6.22556C60.0182 6.35188 60.0363 6.48722 60.0363 6.63158C60.0363 6.75789 60.0363 6.89323 60.0363 7.03759C60.0363 7.16391 60.0363 7.29023 60.0363 7.41654C60.0544 7.52481 60.0724 7.63308 60.0905 7.74135C60.0905 7.79549 60.0905 7.84962 60.0905 7.90376C60.0905 7.95789 60.0995 8.01203 60.1176 8.06616C60.1176 8.17444 60.1176 8.28271 60.1176 8.39098C60.1357 8.49925 60.1537 8.61654 60.1718 8.74286C60.1899 8.94135 60.2079 9.14887 60.226 9.36541C60.2441 9.58195 60.2531 9.7985 60.2531 10.015C60.2531 10.1053 60.2531 10.2045 60.2531 10.3128C60.2531 10.403 60.2621 10.4932 60.2802 10.5835C60.2983 10.6376 60.3073 10.6917 60.3073 10.7459C60.3073 10.8 60.3073 10.8541 60.3073 10.9083V11.4496C60.3073 11.5579 60.3163 11.6481 60.3344 11.7203C60.3705 11.8466 60.3796 11.9729 60.3615 12.0992C60.3615 12.2075 60.3705 12.3248 60.3886 12.4511L60.4699 13.6962C60.488 13.8767 60.497 14.0662 60.497 14.2647C60.5151 14.4451 60.5241 14.6346 60.5241 14.8331C60.5241 14.9053 60.5241 14.9865 60.5241 15.0767C60.5241 15.1489 60.5332 15.2211 60.5512 15.2932C60.5693 15.3474 60.5783 15.4015 60.5783 15.4556C60.5783 15.5098 60.5783 15.5639 60.5783 15.618C60.5964 15.6361 60.5964 15.6722 60.5783 15.7263C60.5783 15.7624 60.5874 15.7985 60.6054 15.8346C60.6416 15.9609 60.6596 16.0872 60.6596 16.2135C60.6596 16.3398 60.6596 16.4752 60.6596 16.6195C60.6596 16.6917 60.6596 16.7729 60.6596 16.8632C60.6777 16.9353 60.6867 17.0165 60.6867 17.1068C60.7048 17.197 60.7138 17.2962 60.7138 17.4045C60.7138 17.5128 60.7138 17.612 60.7138 17.7023C60.7319 17.7925 60.7409 17.8917 60.7409 18C60.7409 18.0902 60.75 18.1805 60.768 18.2707C60.7861 18.3068 60.7952 18.3429 60.7952 18.3789C60.7952 18.5774 60.8132 18.7759 60.8494 18.9744C60.8855 19.1729 60.9216 19.3714 60.9578 19.5699C60.9758 19.6241 60.9849 19.6872 60.9849 19.7594C60.9849 19.8135 60.9849 19.8677 60.9849 19.9218C60.9849 19.9759 60.9668 20.0211 60.9307 20.0571C60.8584 20.1113 60.8042 20.2195 60.768 20.382C60.768 20.4361 60.7409 20.4812 60.6867 20.5173C60.5603 20.5714 60.4519 20.6436 60.3615 20.7338C60.217 20.8602 60.0453 20.9233 59.8466 20.9233Z" fill="#FF0000"/>
<path d="M67.042 20.8421C66.9336 20.8421 66.8613 20.8331 66.8252 20.815C66.7348 20.7789 66.6445 20.7609 66.5542 20.7609C66.4819 20.7789 66.4006 20.788 66.3102 20.788C66.2922 20.788 66.2741 20.788 66.256 20.788C66.238 20.806 66.2199 20.815 66.2018 20.815C66.0754 20.8331 65.9489 20.8421 65.8224 20.8421C65.714 20.8421 65.6056 20.8241 65.4972 20.788C65.4791 20.7699 65.461 20.7609 65.443 20.7609C65.3165 20.7789 65.2081 20.7429 65.1177 20.6526C65.0274 20.5624 64.9371 20.4812 64.8467 20.409C64.7564 20.3188 64.7112 20.2195 64.7112 20.1113L64.6299 19.8947C64.5757 19.7684 64.5576 19.6511 64.5757 19.5429C64.5938 19.5068 64.5938 19.4707 64.5757 19.4346C64.5757 19.3985 64.5757 19.3624 64.5757 19.3263C64.5576 19.2902 64.5486 19.2541 64.5486 19.218C64.5486 19.1639 64.5396 19.1188 64.5215 19.0827C64.4854 18.9203 64.4583 18.7579 64.4402 18.5955C64.4402 18.415 64.4492 18.2436 64.4673 18.0812C64.4854 17.9729 64.5486 17.7925 64.657 17.5399C64.7654 17.2692 64.8287 17.1068 64.8467 17.0526C64.9009 16.9624 64.928 16.8902 64.928 16.8361C64.91 16.6376 64.9009 16.4391 64.9009 16.2406C64.919 16.0241 64.928 15.8165 64.928 15.618C64.928 15.4917 64.9551 15.3925 65.0093 15.3203C65.0816 15.194 65.0906 15.0586 65.0364 14.9143L64.9551 14.6165C64.8467 14.418 64.8558 14.2466 64.9822 14.1023C64.9822 14.0842 64.9822 14.0752 64.9822 14.0752C65.0003 14.0571 65.0093 14.0391 65.0093 14.0211C65.0455 13.985 65.0545 13.9398 65.0364 13.8857C65.0184 13.8135 65.0093 13.7594 65.0093 13.7233C65.0093 13.6511 65.0184 13.5789 65.0364 13.5068C65.0726 13.4165 65.0816 13.3353 65.0635 13.2632C65.0635 13.2632 65.0455 13.2451 65.0093 13.209C64.9913 13.1729 64.9822 13.1008 64.9822 12.9925C65.0003 12.8842 65.0093 12.8211 65.0093 12.803V12.0451C65.0274 11.9549 65.0364 11.8737 65.0364 11.8015C65.0364 11.7113 65.0455 11.6211 65.0635 11.5308C65.0816 11.4226 65.0816 11.3143 65.0635 11.206C65.0635 11.0797 65.0635 10.9534 65.0635 10.8271C65.0455 10.7368 65.0274 10.6376 65.0093 10.5293C65.0093 10.4211 65.0093 10.3128 65.0093 10.2045C64.9913 10.1684 64.9822 10.1233 64.9822 10.0692C64.9822 10.015 64.9822 9.96992 64.9822 9.93383C64.9642 9.84361 64.9461 9.75338 64.928 9.66316C64.928 9.57293 64.928 9.48271 64.928 9.39248C64.928 9.35639 64.8919 9.2391 64.8196 9.0406C64.7473 8.82406 64.7202 8.64361 64.7383 8.49925C64.7564 8.46316 64.7654 8.41805 64.7654 8.36391C64.7654 8.30977 64.7473 8.26466 64.7112 8.22857C64.6751 8.21053 64.657 8.17444 64.657 8.1203V8.0391C64.7112 7.82256 64.6841 7.60601 64.5757 7.38947C64.5034 7.2812 64.4763 7.17293 64.4944 7.06466C64.4944 6.9203 64.4312 6.81203 64.3047 6.73985C64.2143 6.64962 64.133 6.54135 64.0608 6.41504C63.9885 6.28872 63.9433 6.16241 63.9252 6.03609C63.9072 5.94586 63.8981 5.85564 63.8981 5.76541C63.8981 5.67519 63.8981 5.59399 63.8981 5.5218C63.8981 5.44962 63.9072 5.40451 63.9252 5.38647C63.9975 5.31429 64.0337 5.23308 64.0337 5.14286C64.0337 5.03459 64.0427 4.95338 64.0608 4.89925C64.0788 4.8812 64.0969 4.87218 64.115 4.87218C64.133 4.87218 64.1511 4.86316 64.1692 4.84511C64.2414 4.82707 64.2776 4.76391 64.2776 4.65564C64.2414 4.58346 64.2234 4.5203 64.2234 4.46616C64.2053 4.39398 64.2324 4.33083 64.3047 4.27669C64.3408 4.20451 64.386 4.18647 64.4402 4.22256C64.5667 4.27669 64.7112 4.25865 64.8738 4.16842C64.9461 4.13233 64.9913 4.11429 65.0093 4.11429C65.0635 4.11429 65.0906 4.11429 65.0906 4.11429C65.1087 4.09624 65.1629 4.08722 65.2533 4.08722C65.3617 4.10526 65.461 4.06917 65.5514 3.97895C65.6779 3.85263 65.8314 3.78947 66.0121 3.78947H67.6925C68.108 3.80752 68.5236 3.80752 68.9392 3.78947C69.3547 3.77143 69.7613 3.76241 70.1588 3.76241C70.2491 3.76241 70.3214 3.76241 70.3756 3.76241C70.4478 3.74436 70.5201 3.72632 70.5924 3.70827C70.7008 3.65413 70.8273 3.62707 70.9718 3.62707H71.5952C71.7397 3.62707 71.8662 3.62707 71.9746 3.62707C72.1011 3.60902 72.2276 3.59098 72.354 3.57293C72.4263 3.55489 72.4895 3.54586 72.5438 3.54586C72.616 3.54586 72.6883 3.54586 72.7606 3.54586C72.8328 3.54586 72.9051 3.54586 72.9774 3.54586C73.0497 3.54586 73.1219 3.53684 73.1942 3.5188C73.3388 3.50075 73.4923 3.49173 73.6549 3.49173C73.8176 3.47368 73.9711 3.46466 74.1157 3.46466C74.188 3.46466 74.2512 3.46466 74.3054 3.46466C74.3777 3.44662 74.4499 3.42857 74.5222 3.41053C74.6668 3.37443 74.8023 3.35639 74.9287 3.35639C75.0733 3.33834 75.2088 3.3203 75.3353 3.30226C75.4798 3.28421 75.6153 3.26617 75.7418 3.24812C75.8864 3.23007 76.0219 3.21203 76.1483 3.19398C76.311 3.19398 76.4284 3.21203 76.5007 3.24812C76.6091 3.3203 76.7085 3.38346 76.7988 3.43759C76.9072 3.49173 77.0066 3.56391 77.0969 3.65413C77.1692 3.72632 77.2144 3.78947 77.2324 3.84361C77.2505 3.91579 77.2686 3.98797 77.2866 4.06015C77.3047 4.13233 77.3228 4.21353 77.3408 4.30376V4.49323C77.3228 4.58346 77.3047 4.68271 77.2866 4.79098C77.2866 4.8812 77.2776 4.98045 77.2595 5.08872C77.2234 5.1609 77.1782 5.22406 77.124 5.27819L76.6362 5.76541C76.4555 5.81955 76.2748 5.85564 76.0941 5.87368C75.9315 5.89173 75.7599 5.89173 75.5792 5.87368H75.3895C75.2991 5.89173 75.2088 5.90075 75.1185 5.90075C75.0281 5.90075 74.9378 5.89173 74.8474 5.87368C74.739 5.85564 74.6306 5.85564 74.5222 5.87368C74.4138 5.87368 74.3054 5.87368 74.197 5.87368C74.1247 5.87368 74.0524 5.88271 73.9802 5.90075C73.926 5.90075 73.8627 5.89173 73.7905 5.87368C73.7001 5.85564 73.6098 5.85564 73.5194 5.87368C73.4472 5.87368 73.3659 5.88271 73.2755 5.90075C73.2032 5.90075 73.1219 5.90977 73.0316 5.92782C72.9593 5.92782 72.878 5.92782 72.7877 5.92782C72.5528 5.96391 72.2998 5.98195 72.0288 5.98195C71.7759 5.98195 71.5229 6 71.27 6.03609C71.1073 6.01805 70.9538 6.02707 70.8092 6.06316C70.6647 6.0812 70.5111 6.09925 70.3485 6.11729C70.2039 6.13534 70.0503 6.14436 69.8877 6.14436C69.7251 6.14436 69.5715 6.16241 69.427 6.1985C69.2463 6.1985 69.0656 6.22556 68.885 6.2797C68.7223 6.31579 68.5507 6.34286 68.37 6.3609L68.1803 6.38797C68.0538 6.38797 67.9364 6.40601 67.828 6.4421C67.7196 6.46015 67.6021 6.48722 67.4756 6.52331C67.4034 6.54135 67.3311 6.5594 67.2588 6.57744C67.1865 6.57744 67.1052 6.58647 67.0149 6.60451C66.9607 6.60451 66.8975 6.62256 66.8252 6.65865C66.771 6.67669 66.7439 6.73083 66.7439 6.82105L66.8252 7.06466C66.8433 7.10075 66.8342 7.19098 66.7981 7.33534C66.78 7.4797 66.7619 7.58797 66.7439 7.66015C66.7439 7.71429 66.7529 7.76842 66.771 7.82256C66.789 7.87669 66.8071 7.93083 66.8252 7.98496C66.8794 8.12932 66.9065 8.29173 66.9065 8.47218C66.9065 8.63459 66.9246 8.78797 66.9607 8.93233C66.9788 9.00451 66.9878 9.08571 66.9878 9.17594C66.9878 9.24812 66.9968 9.32932 67.0149 9.41955C67.0149 9.45564 67.0149 9.50075 67.0149 9.55489C67.033 9.59098 67.042 9.63609 67.042 9.69022C67.042 9.74436 67.033 9.78045 67.0149 9.7985C66.9607 9.87068 66.9336 9.95188 66.9336 10.0421C66.9336 10.1323 66.9336 10.2226 66.9336 10.3128C67.0239 10.4932 67.0691 10.6737 67.0691 10.8541C67.0691 11.0346 67.0691 11.215 67.0691 11.3955C67.0691 11.4496 67.1143 11.4677 67.2046 11.4496H67.2317C67.2678 11.3774 67.304 11.3233 67.3401 11.2872C67.3943 11.2872 67.4576 11.2692 67.5298 11.2331C67.584 11.197 67.6563 11.1789 67.7467 11.1789C67.8912 11.197 68.0267 11.197 68.1532 11.1789C68.2797 11.1429 68.4061 11.1068 68.5326 11.0707C69.3818 10.8541 70.1768 10.5744 70.9176 10.2316C71.1164 10.1414 71.3242 10.0692 71.541 10.015C71.7578 9.94286 71.9746 9.89774 72.1914 9.8797H72.2727C72.4353 9.86165 72.598 9.84361 72.7606 9.82556C72.9232 9.80752 73.0858 9.7985 73.2484 9.7985C73.4652 9.78045 73.673 9.75338 73.8718 9.71729C74.0886 9.6812 74.3054 9.65413 74.5222 9.63609C74.6487 9.6 74.7661 9.57293 74.8745 9.55489C74.983 9.5188 75.1004 9.47368 75.2269 9.41955C75.4618 9.32932 75.6786 9.28421 75.8773 9.28421C76.0219 9.30225 76.1574 9.33835 76.2839 9.39248C76.4103 9.42857 76.5368 9.48271 76.6633 9.55489C76.9343 9.73534 77.0698 10.006 77.0698 10.3669C77.0698 10.5113 77.0518 10.6556 77.0156 10.8C76.9975 10.9444 76.9885 11.0887 76.9885 11.2331C76.9885 11.2692 76.9705 11.3053 76.9343 11.3414L76.853 11.4767C76.8349 11.5489 76.8169 11.6211 76.7988 11.6932C76.7807 11.7654 76.7356 11.8195 76.6633 11.8556C76.5549 11.9459 76.4374 12.0451 76.311 12.1534C76.2026 12.2436 76.0761 12.3068 75.9315 12.3429C75.8593 12.3609 75.787 12.3789 75.7147 12.397C75.6605 12.415 75.5973 12.4241 75.525 12.4241C75.2359 12.4241 74.9378 12.4421 74.6306 12.4782C74.3415 12.5143 74.0434 12.5504 73.7363 12.5865C73.5014 12.6045 73.2665 12.6316 73.0316 12.6677C72.8148 12.7038 72.5889 12.7218 72.354 12.7218C72.1372 12.7218 71.8933 12.7669 71.6223 12.8571C71.4416 12.8932 71.2519 12.9293 71.0531 12.9654C70.8544 13.0015 70.6556 13.0286 70.4569 13.0466C70.3123 13.0647 70.1588 13.0917 69.9961 13.1278C69.8516 13.1459 69.707 13.1639 69.5625 13.182L69.1018 13.2632C69.0656 13.2812 69.0114 13.2902 68.9392 13.2902C68.8127 13.3263 68.6862 13.3534 68.5597 13.3714C68.4333 13.3895 68.3068 13.4165 68.1803 13.4526C68.0538 13.4707 67.9273 13.4977 67.8009 13.5338C67.6925 13.5699 67.575 13.606 67.4485 13.6421C67.3582 13.6602 67.2859 13.6962 67.2317 13.7504C67.1775 13.7865 67.1323 13.8406 67.0962 13.9128C67.0781 13.9669 67.0781 14.0211 67.0962 14.0752C67.1143 14.1474 67.1052 14.2195 67.0691 14.2917C67.0872 14.4722 67.0962 14.6526 67.0962 14.8331C67.1143 15.0135 67.1143 15.194 67.0962 15.3744C67.1323 15.5188 67.1414 15.6632 67.1233 15.8075C67.1233 15.9519 67.1143 16.0962 67.0962 16.2406C67.0601 16.4571 67.0691 16.6376 67.1233 16.782C67.1775 17.0165 67.1594 17.2602 67.0691 17.5128C67.033 17.6211 67.033 17.6932 67.0691 17.7293C67.1052 17.7835 67.1052 17.8466 67.0691 17.9188V18.0812C67.051 18.2256 67.1143 18.2977 67.2588 18.2977H67.313C67.4395 18.2977 67.566 18.3429 67.6925 18.4331C67.7828 18.5233 67.8912 18.5504 68.0177 18.5143L68.7765 18.4331C68.8849 18.415 68.9934 18.406 69.1018 18.406C69.2102 18.388 69.3186 18.3789 69.427 18.3789C69.4631 18.3609 69.5173 18.3699 69.5896 18.406C69.6799 18.4601 69.7613 18.4692 69.8335 18.4331C69.8697 18.397 69.9148 18.3699 69.969 18.3519C70.0413 18.3338 70.0955 18.3068 70.1317 18.2707C70.2401 18.1624 70.3756 18.1263 70.5382 18.1624C70.6827 18.1985 70.8002 18.1895 70.8905 18.1353C71.0531 18.0812 71.2067 18.0632 71.3513 18.0812C71.4416 18.0992 71.5319 18.0902 71.6223 18.0541C71.7126 18.018 71.803 18 71.8933 18C71.9294 18 71.9565 18.009 71.9746 18.0271C71.9927 18.0271 72.0107 18.018 72.0288 18C72.0649 18 72.1011 17.991 72.1372 17.9729C72.1734 17.9549 72.2005 17.9459 72.2185 17.9459C72.345 17.8917 72.4624 17.8737 72.5709 17.8917C72.6612 17.8917 72.7064 17.8917 72.7064 17.8917C72.7786 17.8737 72.8419 17.8737 72.8961 17.8917C72.9684 17.9098 73.0316 17.9368 73.0858 17.9729C73.1761 17.991 73.2484 18.018 73.3026 18.0541C73.3749 18.0902 73.4472 18.1173 73.5194 18.1353C73.5556 18.1353 73.5827 18.1444 73.6007 18.1624C73.6911 18.2346 73.7995 18.2977 73.926 18.3519C74.0705 18.406 74.1518 18.4692 74.1699 18.5414C74.206 18.6496 74.2241 18.7579 74.2241 18.8662C74.2241 18.9564 74.2331 19.0556 74.2512 19.1639C74.2512 19.218 74.2422 19.2722 74.2241 19.3263C74.2241 19.3805 74.2151 19.4346 74.197 19.4887C74.1609 19.5609 74.1157 19.6421 74.0615 19.7323C74.0253 19.8226 73.9711 19.9038 73.8989 19.9759C73.8627 20.012 73.8266 20.0481 73.7905 20.0842C73.7724 20.1203 73.7453 20.1564 73.7091 20.1925C73.6369 20.2647 73.5556 20.3278 73.4652 20.382C73.3749 20.4361 73.2755 20.4632 73.1671 20.4632C73.0948 20.4632 73.0406 20.4722 73.0045 20.4902C72.9322 20.5263 72.8599 20.5444 72.7877 20.5444C72.7154 20.5444 72.6341 20.5444 72.5438 20.5444C72.4173 20.5624 72.2908 20.5805 72.1643 20.5985C72.0559 20.5985 71.9385 20.5895 71.812 20.5714C71.7397 20.5534 71.6765 20.5534 71.6223 20.5714C71.4416 20.6256 71.2609 20.6346 71.0802 20.5985C70.8996 20.5985 70.7189 20.6075 70.5382 20.6256C70.3756 20.6256 70.213 20.6256 70.0503 20.6256H69.698C69.6438 20.6256 69.5986 20.6346 69.5625 20.6526C69.4902 20.6887 69.3999 20.7068 69.2915 20.7068C69.2011 20.7068 69.1108 20.6977 69.0205 20.6797H68.7494C68.7314 20.6797 68.7043 20.6797 68.6681 20.6797C68.632 20.6977 68.5959 20.6977 68.5597 20.6797C68.5055 20.6617 68.4513 20.6526 68.3971 20.6526C68.361 20.6707 68.3158 20.6887 68.2616 20.7068C68.2255 20.7068 68.1893 20.7068 68.1532 20.7068C68.1351 20.7248 68.108 20.7338 68.0719 20.7338C67.8912 20.7158 67.7196 20.7158 67.5569 20.7338C67.3943 20.7699 67.2227 20.806 67.042 20.8421Z" fill="#FF0000"/>
<path d="M84.7897 21.9789L84.329 21.8977C84.0941 21.8617 83.8502 21.8256 83.5972 21.7895C83.3623 21.7534 83.1184 21.7263 82.8655 21.7083C82.6125 21.7083 82.3596 21.6361 82.1066 21.4917C81.8717 21.3654 81.7091 21.1669 81.6188 20.8962C81.6007 20.806 81.5736 20.7158 81.5375 20.6256C81.5194 20.5353 81.5013 20.4451 81.4833 20.3549C81.4833 20.1383 81.5284 19.9759 81.6188 19.8677C81.7091 19.7774 81.7814 19.6872 81.8356 19.597C81.9078 19.5068 81.9801 19.4256 82.0524 19.3534C82.0885 19.3173 82.1247 19.2902 82.1608 19.2722C82.1969 19.2541 82.2331 19.2361 82.2692 19.218C82.3596 19.1639 82.4499 19.1278 82.5402 19.1098C82.6306 19.0737 82.7209 19.0466 82.8113 19.0286C82.8474 19.0105 82.8745 19.0105 82.8926 19.0286C82.9287 19.0286 82.9558 19.0286 82.9739 19.0286C83.0642 19.0466 83.1636 19.0647 83.272 19.0827C83.3804 19.0827 83.4798 19.1008 83.5701 19.1368L84.7084 19.2992C84.9614 19.3353 85.1872 19.2992 85.386 19.191C85.4582 19.1549 85.5215 19.1188 85.5757 19.0827C85.648 19.0466 85.7112 19.0105 85.7654 18.9744C86.1629 18.7398 86.5062 18.4962 86.7953 18.2436C87.0121 18.0451 87.2199 17.8466 87.4186 17.6481C87.6174 17.4496 87.7981 17.2331 87.9607 16.9985C88.0872 16.8361 88.1685 16.6737 88.2046 16.5113C88.2407 16.3308 88.2498 16.1504 88.2317 15.9699L88.1504 15.7534C88.1323 15.6632 88.0962 15.591 88.042 15.5368C87.9878 15.4827 87.9336 15.4195 87.8794 15.3474C87.771 15.2571 87.6626 15.1579 87.5541 15.0496C87.4638 14.9414 87.3644 14.8511 87.256 14.7789C86.985 14.5624 86.714 14.3549 86.443 14.1564C86.19 13.9579 85.928 13.7594 85.657 13.5609C85.6389 13.5248 85.5847 13.4887 85.4944 13.4526C85.3318 13.3444 85.1692 13.2271 85.0065 13.1008C84.862 12.9564 84.7174 12.8211 84.5729 12.6947C84.3922 12.5143 84.1935 12.3429 83.9767 12.1805C83.8682 12.1263 83.7689 12.0361 83.6785 11.9098C83.6063 11.8195 83.4978 11.7293 83.3533 11.6391C83.2268 11.5669 83.1094 11.4857 83.001 11.3955C82.8926 11.2872 82.7842 11.188 82.6758 11.0977L82.3234 10.7729C82.2511 10.6827 82.1698 10.6015 82.0795 10.5293C82.0072 10.4391 81.9259 10.3489 81.8356 10.2586C81.7994 10.1684 81.7452 10.0962 81.673 10.0421C81.6188 9.98797 81.5646 9.92481 81.5104 9.85263C81.4923 9.81654 81.4652 9.78045 81.429 9.74436C81.3929 9.69022 81.3658 9.63609 81.3477 9.58195C81.2393 9.36541 81.1219 9.14887 80.9954 8.93233C80.887 8.71579 80.7876 8.49023 80.6973 8.25564C80.6431 8.11128 80.5889 7.97594 80.5347 7.84962C80.4985 7.70526 80.4624 7.56992 80.4263 7.44361C80.4082 7.29925 80.3721 7.17293 80.3178 7.06466C80.2817 6.93835 80.2456 6.81203 80.2094 6.68571C80.1733 6.48722 80.1281 6.29774 80.0739 6.11729C80.0378 5.9188 80.0017 5.72932 79.9655 5.54887L79.9113 5.33233C79.8932 5.13383 79.8932 4.94436 79.9113 4.76391C79.9475 4.51128 80.0017 4.28571 80.0739 4.08722C80.1462 3.87068 80.2636 3.69925 80.4263 3.57293C80.6069 3.42857 80.7876 3.28421 80.9683 3.13985C81.149 2.99549 81.3387 2.8782 81.5375 2.78797C81.5736 2.78797 81.6007 2.77895 81.6188 2.7609C81.7994 2.61654 81.9982 2.51729 82.215 2.46316C82.4318 2.39098 82.6486 2.32782 82.8655 2.27368C83.7327 2.02105 84.6271 1.83158 85.5486 1.70526H85.8196C86.0003 1.70526 86.1719 1.70526 86.3345 1.70526C86.4972 1.70526 86.6688 1.69624 86.8495 1.67819C87.0663 1.67819 87.2831 1.70526 87.4999 1.7594C87.7168 1.79549 87.9245 1.85865 88.1233 1.94887C88.2678 2.02105 88.4124 2.10225 88.5569 2.19248C88.7015 2.26466 88.837 2.34586 88.9635 2.43609C89.108 2.54436 89.1983 2.66165 89.2345 2.78797L89.3158 2.97744C89.4061 3.13985 89.4513 3.31128 89.4513 3.49173C89.4694 3.65414 89.4603 3.82556 89.4242 4.00601C89.4242 4.06015 89.4152 4.12331 89.3971 4.19549C89.3971 4.24962 89.3971 4.30376 89.3971 4.35789C89.3429 4.75489 89.1532 5.06165 88.8279 5.27819C88.6292 5.45865 88.3672 5.53083 88.042 5.49474C87.9697 5.45865 87.9336 5.47669 87.9336 5.54887C87.9336 5.62105 87.8884 5.65714 87.7981 5.65714H87.6355C87.527 5.65714 87.4186 5.60301 87.3102 5.49474C87.2199 5.40451 87.1747 5.33233 87.1747 5.27819C87.1747 5.20601 87.2108 5.15188 87.2831 5.11579C87.247 5.02556 87.2109 4.94436 87.1747 4.87218C87.1386 4.8 87.1024 4.74586 87.0663 4.70977C87.0121 4.61955 86.9308 4.55639 86.8224 4.5203C86.732 4.50226 86.6417 4.48421 86.5514 4.46616C86.461 4.44812 86.3707 4.43007 86.2803 4.41203C86.2081 4.41203 86.1268 4.41203 86.0364 4.41203C85.9461 4.39398 85.8557 4.37594 85.7654 4.35789C85.7112 4.33985 85.6299 4.34887 85.5215 4.38496C85.4673 4.40301 85.4131 4.42105 85.3589 4.4391C85.3047 4.4391 85.2414 4.43007 85.1692 4.41203C85.1149 4.41203 85.0517 4.41203 84.9794 4.41203C84.9252 4.41203 84.862 4.43007 84.7897 4.46616L84.2748 4.54737C83.9857 4.6015 83.7056 4.70977 83.4346 4.87218C83.3804 4.89023 83.3262 4.90827 83.272 4.92631C83.2178 4.94436 83.1636 4.94436 83.1094 4.92631C83.001 4.90827 82.9106 4.93534 82.8384 5.00752C82.8203 5.04361 82.7751 5.07068 82.7029 5.08872C82.6486 5.08872 82.6035 5.10677 82.5673 5.14286C82.4951 5.21504 82.4589 5.28722 82.4589 5.3594C82.477 5.39549 82.486 5.44962 82.486 5.5218L83.0552 7.17293C83.1636 7.46165 83.2991 7.73233 83.4617 7.98496C83.6424 8.21955 83.8321 8.45413 84.0309 8.68872C84.338 9.04962 84.6542 9.35639 84.9794 9.60902L85.8467 10.3398C86.0274 10.5023 86.2171 10.6556 86.4158 10.8C86.6146 10.9444 86.8043 11.0887 86.985 11.2331C87.256 11.4316 87.527 11.6391 87.7981 11.8556C88.0691 12.0541 88.3401 12.2617 88.6111 12.4782C88.8279 12.6586 89.0357 12.8391 89.2345 13.0195C89.4513 13.182 89.65 13.3624 89.8307 13.5609C89.9572 13.7053 90.0837 13.8496 90.2102 13.994C90.3366 14.1383 90.445 14.3008 90.5354 14.4812C90.6619 14.6797 90.7703 14.9143 90.8606 15.185C90.969 15.5278 91.0142 15.8526 90.9961 16.1594C90.9781 16.1955 90.969 16.2496 90.969 16.3218C90.969 16.5383 90.9419 16.7459 90.8877 16.9444C90.8516 17.1248 90.7883 17.3143 90.698 17.5128C90.6077 17.6932 90.5083 17.8827 90.3999 18.0812C90.3095 18.2617 90.2011 18.4421 90.0747 18.6226C89.894 18.8571 89.7043 19.0827 89.5055 19.2992C89.3248 19.4977 89.117 19.6962 88.8822 19.8947C88.7557 20.003 88.6292 20.1203 88.5027 20.2466C88.3762 20.3549 88.2407 20.4541 88.0962 20.5444C88.0059 20.6165 87.9155 20.6797 87.8252 20.7338C87.7348 20.806 87.6445 20.8782 87.5541 20.9504C87.4819 20.9865 87.4096 21.0316 87.3373 21.0857C87.2651 21.1399 87.1928 21.194 87.1205 21.2481C87.0482 21.3203 86.9579 21.3744 86.8495 21.4105C86.7591 21.4647 86.6688 21.5098 86.5785 21.5459L85.7925 21.8707C85.6299 21.9248 85.4673 21.9609 85.3047 21.9789C85.142 21.997 84.9704 21.997 84.7897 21.9789Z" fill="#FF0000"/>
</svg>
